<svg id="Layer_1" data-name="Layer 1" xmlns="http://www.w3.org/2000/svg" viewBox="0 0 584.17 411.92"><defs><style>.cls-1{fill:#fff;}</style></defs><path class="cls-1" d="M0,166.86,166.86,0V245.05L0,411.92ZM262.38,70.64c0-17.46-7.94-29.9-29.64-29.9H215v59.54h17.72C254.44,100.28,262.38,88.1,262.38,70.64ZM235.12,141H215V196.9l75.84-75.84C278,133.51,259.18,141,235.12,141Zm129-8.15H348.43V94.25H339.2v47.52h24.87Zm14.69,9.51c-6.74,0-11.19-4.32-11.19-14v-11c0-9.77,4.59-14,11.19-14,5.53,0,8.42,3.51,9,4.72V103.9h8.22v37.87h-8.22v-4.18C387.18,138.87,384.29,142.38,378.76,142.38Zm8.42-14.7v-9.77c0-4.58-2.29-6.6-5.39-6.6s-5.39,2.09-5.39,6.74v9.63c0,4.72,2.16,6.81,5.39,6.81S387.18,132.33,387.18,127.68Zm40.57,14.09h-9.23V94.25h14.76c9.3,0,16,6.14,16,17.26v1.89c0,11.18-6.67,17-16,17h-5.53Zm0-20.15h4.58c4.05,0,7.82-1.89,7.82-8.29v-1.75c0-7-3.9-8.43-7.82-8.43h-4.58Zm28,20.15h8.82V94.25h-8.82ZM490.9,129.1a5.3,5.3,0,0,1-5.39,5.46,5.21,5.21,0,0,1-5.46-5.46V103.89h-8.76v23.93c0,9,5.25,14.62,14.22,14.62,8.69,0,14.21-5.66,14.21-14.62V103.89H490.9Zm49.4-25.61a10.24,10.24,0,0,0-9.31,5.19,9.37,9.37,0,0,0-8.89-5.19c-5.12,0-7.35,3.3-7.82,4.31v-3.9h-8.22v37.87h8.76V116.29c0-3.64,2.16-5.05,4.45-5.05,2.63,0,4.51,1.48,4.51,5.19v25.34h8.83V116.29c0-3.57,2.16-5.05,4.45-5.05s4.45,1.41,4.45,5.19v25.34h8.83v-25C550.34,107.6,546.63,103.49,540.3,103.49Zm24.26,22v4.11a5.56,5.56,0,0,0,5.46,5.66c3,0,5.39-1.69,5.39-4.78v-.81h8.76v.27c0,6.94-5.26,12.53-14.15,12.53s-14.22-5.73-14.22-14.82v-9.24c0-9.23,5.19-15,14.22-15s14.15,5.33,14.15,14.62v7.42Zm0-6.2h10.85v-1.82c0-5.06-2.09-6.74-5.39-6.74-3.1,0-5.46,1.75-5.46,5.8ZM358.8,185.11l-15.9-35h-3.77v47.51h4V159.23l14.15,30.86h3.17l14.22-30.93v38.48h4V150.13h-3.78Zm55.81-11.19v5.66H389.74V184c0,6.87,4.18,11,10.58,11s10.44-4.11,10.44-9.36v-.41h3.85v.27c0,6.94-5.33,12.81-14.29,12.81s-14.36-5.46-14.36-15v-9.1c0-9.5,5.26-15.1,14.36-15.1S414.61,164.62,414.61,173.92Zm-3.85-.2c0-7.42-3.9-11.19-10.44-11.19s-10.58,4.11-10.58,11.12v3h21Zm35.05-23.59h3.84v47.51H446v-6.2c-1.62,3.78-5.66,6.87-11.66,6.87-8.42,0-13.41-5.52-13.41-15v-9.23c0-9.24,5-14.83,13.41-14.83,6,0,10,3.1,11.46,6.87Zm0,23.93c0-7.28-4-11.53-10.45-11.53-6.87,0-10.58,4.59-10.58,12v8.35c0,7.62,3.77,12.13,10.58,12.13,6.6,0,10.45-4.44,10.45-12.13Zm12.42,23.58h3.84V159.77h-3.84Zm1.95-49.53a2.6,2.6,0,0,0-2.63,2.63,2.63,2.63,0,1,0,5.26,0A2.59,2.59,0,0,0,460.18,148.11Zm34.76,11.66h3.64v37.87h-3.64v-6.2c-1.62,3.71-5.6,6.87-11.66,6.87-8.36,0-13.35-5.59-13.35-15v-9.23c0-9.37,5.13-14.83,13.35-14.83,6.06,0,10,3.17,11.66,6.81Zm-.21,14.29c0-7.28-4-11.53-10.44-11.53-6.81,0-10.51,4.45-10.51,11.93v8.36c0,7.75,3.7,12.19,10.51,12.19s10.44-4.51,10.44-12.19Z"/></svg>